PathFileType	4	(X/Y/Z)	C:\Users\86182\Documents\cortex\Trimmed_M3_L14.trc
DataRate	CameraRate	NumFrames	NumMarkers	Units	OrigDataRate	OrigDataStartFrame	OrigNumFrames
100.00	100.00	       70	2	mm	100.00	541	       901
Frame#	Time	gripper			box			
		X1	Y1	Z1	X2	Y2	Z2	

541	5.400	273.46320	149.80124	292.85947	274.91611	147.70215	157.11304	
542	5.410	273.50620	149.79866	292.83484	274.95212	147.71947	157.11383	
543	5.420	273.43884	149.80748	292.86624	274.87967	147.71599	157.13866	
544	5.430	273.46466	149.79805	292.86328	274.87564	147.70921	157.14313	
545	5.440	273.45270	149.79854	292.87048	274.94177	147.73512	157.13895	
546	5.450	273.46866	149.79173	292.87006	274.93173	147.73749	157.14838	
547	5.460	273.46866	149.79173	292.87006	274.92883	147.73767	157.14215	
548	5.470	273.46866	149.79173	292.87006	274.93777	147.72359	157.12929	
549	5.480	273.47101	149.79160	292.86874	274.95148	147.72966	157.12814	
550	5.490	273.46991	149.79506	292.86429	274.95978	147.72508	157.12250	
551	5.500	273.49191	149.79266	292.85327	274.97122	147.72522	157.10933	
552	5.510	273.46606	149.80615	292.85019	274.93622	147.71964	157.12465	
553	5.520	273.49973	149.79878	292.83893	275.00089	147.72984	157.10905	
554	5.530	273.47104	149.80270	292.85208	274.99094	147.73390	157.11140	
555	5.540	273.49185	149.79596	292.84839	275.01495	147.73456	157.10422	
556	5.550	273.49234	149.79193	292.85410	274.97424	147.73515	157.12155	
557	5.560	273.46466	149.79805	292.86328	274.94775	147.72774	157.12785	
558	5.570	273.48160	149.79239	292.86050	274.89047	147.71692	157.14427	
559	5.580	273.45953	149.79562	292.87030	274.91238	147.72403	157.14128	
560	5.590	273.47180	149.79730	292.85965	274.97174	147.74855	157.13893	
561	5.600	273.46762	149.79604	292.86432	274.92532	147.71606	157.12611	
562	5.610	273.48322	149.79248	292.85931	274.91614	147.72598	157.14159	
563	5.620	273.46866	149.79173	292.87006	274.87650	147.71815	157.15256	
564	5.630	273.46823	149.80035	292.85748	274.92905	147.71802	157.12640	
565	5.640	273.44257	149.77863	292.85568	274.93832	147.71368	157.11476	
566	5.650	273.49872	149.79225	292.84937	274.94180	147.70525	157.10675	
567	5.660	273.46866	149.79173	292.87006	274.88742	147.70367	157.13261	
568	5.670	273.47314	149.79523	292.86188	274.90820	147.70222	157.11844	
569	5.680	273.49438	149.79373	292.85004	274.96906	147.71243	157.10995	
570	5.690	273.48575	149.79190	292.85852	274.94211	147.70557	157.10620	
571	5.700	273.48801	149.79272	292.85577	274.93301	147.71375	157.11836	
572	5.710	273.47617	149.80074	292.85162	274.97772	147.68718	157.09712	
573	5.720	273.44357	149.80879	292.86115	274.90820	147.70222	157.11844	
574	5.730	273.47702	149.79434	292.86063	274.95853	147.72137	157.11230	
575	5.740	273.47110	149.79575	292.86246	274.88214	147.70415	157.13432	
576	5.750	273.47998	149.79231	292.86169	274.91391	147.70805	157.12292	
577	5.760	273.44138	149.80336	292.87076	274.89722	147.71405	157.13779	
578	5.770	273.46866	149.79173	292.87006	274.89621	147.70511	157.12845	
579	5.780	273.44818	149.80046	292.87057	274.88565	147.70383	157.13226	
580	5.790	273.46866	149.79173	292.87006	274.94373	147.72353	157.12523	
581	5.800	273.46506	149.79482	292.86786	274.91687	147.73274	157.14865	
582	5.810	273.44022	149.81068	292.86053	274.91928	147.70798	157.11929	
583	5.820	273.49207	149.79648	292.84747	274.96674	147.72955	157.12282	
584	5.830	273.51855	149.79175	292.83701	274.94467	147.71559	157.11325	
585	5.840	273.49664	149.80478	292.83200	274.93997	147.72157	157.12494	
586	5.850	273.46863	149.80812	292.84558	274.96448	147.72728	157.11678	
587	5.860	273.47885	149.79562	292.85748	274.98849	147.72202	157.10606	
588	5.870	273.45987	149.79781	292.86682	274.95627	147.73842	157.13542	
589	5.880	273.47723	149.79140	292.86490	274.92563	147.71831	157.12843	
590	5.890	273.45953	149.79562	292.87030	274.93402	147.72896	157.13600	
591	5.900	273.46866	149.79173	292.87006	274.88675	147.71498	157.14398	
592	5.910	273.46640	149.79271	292.87012	274.93747	147.72217	157.13609	
593	5.920	273.47028	149.79182	292.86887	274.89792	147.72079	157.14484	
594	5.930	273.46866	149.79173	292.87006	274.94168	147.73035	157.13928	
595	5.940	273.46411	149.79369	292.87018	274.95782	147.74980	157.14717	
596	5.950	273.47339	149.79739	292.85846	274.88116	147.86557	157.16223	
597	5.960	273.44400	149.80453	292.86725	274.97455	147.86595	157.12250	
598	5.970	273.48370	149.80492	292.84036	274.97174	147.74855	157.13893	
599	5.980	273.50494	149.81198	292.81573	274.90826	147.71300	157.09019	
600	5.990	273.47073	149.77478	292.79654	274.79749	147.77850	157.07486	
601	6.000	273.48279	149.79515	292.83688	274.87540	147.72272	157.12038	
602	6.010	273.49307	149.80774	292.82993	274.94406	147.70970	157.10522	
603	6.020	273.48096	149.79344	292.85938	274.97864	147.74794	157.13484	
604	6.030	273.46866	149.79173	292.87006	274.88812	147.79846	157.19273	
605	6.040	273.46866	149.79173	292.87006	274.91910	147.75589	157.15198	
606	6.050	273.46866	149.79173	292.87006	274.98212	147.74681	157.13370	
607	6.060	273.46866	149.79173	292.87006	274.99753	147.73563	157.13554	
608	6.070	273.47516	149.79207	292.86526	274.89972	147.70975	157.14589	
609	6.080	273.49576	149.79260	292.85080	275.03839	147.71454	157.09508	
610	6.090	273.49963	149.79076	292.85101	274.97949	147.75998	157.12263	
